HIERARCHY
ROOT Hips
{
	OFFSET 0.000000 0.000000 0.000000
	CHANNELS 6 Xposition Yposition Zposition Xrotation Yrotation Zrotation
	JOINT LeftUpLeg_virtual
	{
		OFFSET 0.000000 0.000000 0.000000
		CHANNELS 3 Xrotation Yrotation Zrotation
		JOINT LeftUpLeg
		{
			OFFSET 13.026900 -6.336304 -1.092800
			CHANNELS 3 Xrotation Yrotation Zrotation
			JOINT LeftLeg
			{
				OFFSET 0.524474 -46.096886 9.782700
				CHANNELS 3 Xrotation Yrotation Zrotation
				JOINT LeftFoot
				{
					OFFSET -0.524474 -53.427422 -12.948200
					CHANNELS 3 Xrotation Yrotation Zrotation
					JOINT LeftToeBase
					{
						OFFSET 0.192200 -14.009700 16.364100
						CHANNELS 3 Xrotation Yrotation Zrotation
						JOINT LeftToe_End
						{
							OFFSET -1.784700 -0.561700 9.474800
							CHANNELS 3 Xrotation Yrotation Zrotation
							End Site
							{
								OFFSET 0 0 0
							}
						}
					}
				}
			}
		}
	}
	JOINT RightUpLeg_virtual
	{
		OFFSET 0.000000 0.000000 0.000000
		CHANNELS 3 Xrotation Yrotation Zrotation
		JOINT RightUpLeg
		{
			OFFSET -12.883000 -6.336304 -1.092800
			CHANNELS 3 Xrotation Yrotation Zrotation
			JOINT RightLeg
			{
				OFFSET -0.524587 -46.096825 9.782800
				CHANNELS 3 Xrotation Yrotation Zrotation
				JOINT RightFoot
				{
					OFFSET 0.524587 -53.427383 -12.948300
					CHANNELS 3 Xrotation Yrotation Zrotation
					JOINT RightToeBase
					{
						OFFSET -0.192200 -14.009700 16.364100
						CHANNELS 3 Xrotation Yrotation Zrotation
						JOINT RightToe_End
						{
							OFFSET 1.784700 -0.561700 9.474800
							CHANNELS 3 Xrotation Yrotation Zrotation
							End Site
							{
								OFFSET 0 0 0
							}
						}
					}
				}
			}
		}
	}
	JOINT Spine_virtual
	{
		OFFSET 0.000000 0.000000 0.000000
		CHANNELS 3 Xrotation Yrotation Zrotation
		JOINT Spine
		{
			OFFSET 0.072000 7.257294 -0.789700
			CHANNELS 3 Xrotation Yrotation Zrotation
			JOINT Spine1
			{
				OFFSET 0.000000 12.508769 -0.658067
				CHANNELS 3 Xrotation Yrotation Zrotation
				JOINT Spine1_split
				{
					OFFSET 0.000000 12.508769 -0.658067
					CHANNELS 3 Xrotation Yrotation Zrotation
					JOINT Spine2
					{
						OFFSET 0.000000 12.508769 -0.658067
						CHANNELS 3 Xrotation Yrotation Zrotation
						JOINT Neck_virtual
						{
							OFFSET 0.000000 0.000000 0.000000
							CHANNELS 3 Xrotation Yrotation Zrotation
							JOINT Neck
							{
								OFFSET 0.000000 14.033295 7.520400
								CHANNELS 3 Xrotation Yrotation Zrotation
								JOINT Head
								{
									OFFSET 0.000000 8.198502 5.703100
									CHANNELS 3 Xrotation Yrotation Zrotation
									JOINT HeadTop_End
									{
										OFFSET 0.000000 17.760803 13.332701
										CHANNELS 3 Xrotation Yrotation Zrotation
										End Site
										{
											OFFSET 0 0 0
										}
									}
								}
							}
						}
						JOINT LeftShoulder_virtual
						{
							OFFSET 0.000000 0.000000 0.000000
							CHANNELS 3 Xrotation Yrotation Zrotation
							JOINT LeftShoulder
							{
								OFFSET 6.292450 5.785301 -0.669000
								CHANNELS 3 Xrotation Yrotation Zrotation
								JOINT LeftShoulder_split
								{
									OFFSET 6.292450 5.785301 -0.669000
									CHANNELS 3 Xrotation Yrotation Zrotation
									JOINT LeftArm
									{
										OFFSET 13.907140 -6.093903 1.965100
										CHANNELS 3 Xrotation Yrotation Zrotation
										JOINT LeftForeArm
										{
											OFFSET 34.140198 0.000000 0.000000
											CHANNELS 3 Xrotation Yrotation Zrotation
											JOINT LeftHand
											{
												OFFSET 40.960209 0.000000 0.000000
												CHANNELS 3 Xrotation Yrotation Zrotation
												End Site
												{
													OFFSET 0 0 0
												}
											}
										}
									}
								}
							}
						}
						JOINT RightShoulder_virtual
						{
							OFFSET 0.000000 0.000000 0.000000
							CHANNELS 3 Xrotation Yrotation Zrotation
							JOINT RightShoulder
							{
								OFFSET -6.292450 5.785301 -0.669000
								CHANNELS 3 Xrotation Yrotation Zrotation
								JOINT RightShoulder_split
								{
									OFFSET -6.292450 5.785301 -0.669000
									CHANNELS 3 Xrotation Yrotation Zrotation
									JOINT RightArm
									{
										OFFSET -13.907140 -6.093903 1.965100
										CHANNELS 3 Xrotation Yrotation Zrotation
										JOINT RightForeArm
										{
											OFFSET -34.140198 0.000000 0.000000
											CHANNELS 3 Xrotation Yrotation Zrotation
											JOINT RightHand
											{
												OFFSET -40.960209 0.000000 0.000000
												CHANNELS 3 Xrotation Yrotation Zrotation
												End Site
												{
													OFFSET 0 0 0
												}
											}
										}
									}
								}
							}
						}
					}
				}
			}
		}
	}
}
MOTION
Frames: 8
Frame Time: 0.03333333
-0.702290 113.657661 0.165371 0.000000 0.000000 0.000000 -0.763694 -2.638861 1.075811 -12.287458 10.055501 12.943226 13.940648 -8.528785 -0.920535 -2.876778 -1.594793 -6.813295 0.167195 -0.041719 -0.953032 0.000000 0.000000 0.000000 -0.190366 -1.566833 0.776782 -17.044083 -4.939583 -13.820472 21.417535 5.743171 1.188053 0.296468 -3.122316 5.453280 -1.091194 0.057078 0.441349 0.000000 0.000000 0.000000 -1.507319 -3.091221 0.926029 2.619100 1.102634 0.948354 1.072483 0.666012 0.205742 1.448084 2.618547 -0.129878 0.000000 0.000000 0.000000 1.166658 0.559343 -0.112611 -0.364384 -0.501388 -2.534920 -4.732205 -10.612305 4.543928 0.000000 0.000000 0.000000 0.848135 0.395735 0.283674 0.688238 -1.170669 -10.705909 -0.285308 0.342827 -2.786127 9.049593 -18.127387 -59.088930 2.242599 -26.257914 1.170998 0.000000 0.000000 0.000000 0.583478 0.450758 0.104195 0.631000 4.034214 14.368630 -0.330023 0.903499 -0.252101 6.484258 4.215191 62.589770 -0.025675 30.717102 -0.314359 0.000000 0.000000 0.000000 
-0.732993 113.835625 0.228863 0.000000 0.000000 0.000000 -0.462589 -2.338096 1.123180 -12.445713 9.460438 12.553825 14.048481 -8.241210 -0.669289 -2.991723 -1.247699 -6.526957 -0.028612 -0.014295 -1.038618 0.000000 0.000000 0.000000 -0.013355 -1.771862 0.815176 -17.080729 -5.343934 -13.891074 20.528152 5.633894 1.064649 0.607273 -2.852442 5.795714 -1.513487 -0.026550 0.502701 0.000000 0.000000 0.000000 -1.321025 -3.119223 0.807610 2.268601 1.059946 0.945960 1.095588 0.680304 0.312190 1.350447 2.858759 0.094982 0.000000 0.000000 0.000000 1.088167 0.601318 -0.036299 -0.170813 -0.465153 -2.548611 -4.850856 -10.578418 4.354326 0.000000 0.000000 0.000000 0.849627 0.457440 0.344476 0.675261 -0.890798 -10.776502 0.716072 -0.088417 -2.381106 8.746423 -18.298225 -58.732366 2.679517 -24.396809 1.140306 0.000000 0.000000 0.000000 0.571174 0.462277 0.084985 0.619840 4.175207 14.546061 0.228353 1.291303 0.141458 6.486947 3.168963 62.690201 0.162764 29.622711 -0.193449 0.000000 0.000000 0.000000 
-0.806644 114.091858 0.085941 0.000000 0.000000 0.000000 0.103718 -2.419197 1.138974 -12.954226 8.906414 12.247972 14.488339 -7.866955 -0.356157 -3.040709 -0.701448 -6.488496 -0.133012 0.021279 -1.032121 0.000000 0.000000 0.000000 0.387215 -2.052829 0.829249 -17.340337 -5.759656 -13.861312 19.572481 5.433407 0.937627 0.382394 -2.692327 5.844448 -1.516685 -0.027949 0.573444 0.000000 0.000000 0.000000 -0.785027 -3.239517 0.651705 1.879676 1.007274 0.920424 1.143915 0.674240 0.456226 1.287151 2.236716 0.247743 0.000000 0.000000 0.000000 1.025915 0.631155 0.071571 0.129113 -0.367925 -2.564597 -5.236346 -10.336810 4.104282 0.000000 0.000000 0.000000 0.919897 0.494472 0.402036 0.676253 -0.551049 -10.949277 1.147977 -0.402584 -1.783030 7.909962 -19.071714 -58.084086 2.829433 -23.109638 1.140879 0.000000 0.000000 0.000000 0.627190 0.491824 0.133769 0.611764 4.442151 14.764212 0.036735 1.802208 0.041323 6.850991 3.392276 62.544609 0.273592 29.022406 -0.045556 0.000000 0.000000 0.000000 
-0.882934 114.225479 -0.268547 0.000000 0.000000 0.000000 0.913019 -2.690299 1.108755 -14.070142 8.411861 12.121206 15.499726 -7.458526 -0.034569 -3.166919 -0.067807 -6.713508 -0.111614 0.060099 -0.921798 0.000000 0.000000 0.000000 1.090135 -2.351761 0.799517 -18.161540 -6.148013 -13.782494 19.049251 5.201669 0.837133 -0.213932 -2.591433 5.755311 -1.281122 0.037955 0.616009 0.000000 0.000000 0.000000 0.050747 -3.413904 0.518678 1.538198 0.969366 0.921918 1.228265 0.690464 0.587497 1.217356 1.376084 0.227137 0.000000 0.000000 0.000000 0.988360 0.671728 0.176019 0.417124 -0.260496 -2.508890 -5.972136 -9.867789 3.757817 0.000000 0.000000 0.000000 1.008782 0.540677 0.410587 0.679547 -0.278743 -11.078184 1.070382 -0.403127 -1.237824 6.251693 -19.750098 -57.296244 2.741665 -23.775048 1.199864 0.000000 0.000000 0.000000 0.733087 0.563796 0.204897 0.612717 4.766174 14.887092 -0.531088 2.324759 -0.434821 6.912221 4.554791 61.842329 0.296671 30.049540 0.114141 0.000000 0.000000 0.000000 
-0.951664 114.000473 -0.841457 0.000000 0.000000 0.000000 2.006693 -2.998585 1.024248 -16.114913 7.950233 12.170437 17.382698 -7.050257 0.292354 -3.527796 0.537049 -7.170141 -0.026940 0.098969 -0.735280 0.000000 0.000000 0.000000 2.197814 -2.546630 0.722141 -19.839261 -6.468570 -13.775730 19.635539 5.105446 0.769599 -1.068305 -2.413672 5.801724 -1.305017 0.154318 0.605800 0.000000 0.000000 0.000000 1.246115 -3.521828 0.421249 1.289111 0.959584 0.995765 1.321908 0.752632 0.650248 1.027947 0.702300 0.152014 0.000000 0.000000 0.000000 0.992256 0.754543 0.227984 0.530640 -0.171495 -2.353837 -7.159377 -9.194260 3.325772 0.000000 0.000000 0.000000 1.063993 0.623009 0.352558 0.682379 -0.213233 -10.978456 0.924830 -0.151737 -0.680808 3.418115 -19.724413 -56.614878 2.559720 -27.012403 1.280699 0.000000 0.000000 0.000000 0.882645 0.690034 0.239100 0.617614 5.066221 14.857932 -0.799716 2.588017 -1.068471 5.922879 6.327933 60.305461 0.238946 33.522565 0.320514 0.000000 0.000000 0.000000 
-1.035816 113.134865 -1.661484 0.000000 0.000000 0.000000 3.424885 -3.165073 0.896925 -19.303943 7.392806 12.332893 20.425781 -6.691469 0.599651 -4.253705 1.014938 -7.769531 -0.035843 0.128521 -0.504704 0.000000 0.000000 0.000000 3.764879 -2.598233 0.610525 -22.627133 -6.602158 -13.903060 21.807886 5.186184 0.681677 -2.257934 -2.089057 5.953347 -1.688153 0.291944 0.549300 0.000000 0.000000 0.000000 2.823826 -3.526345 0.388712 1.178777 0.980680 1.145468 1.410303 0.879705 0.608589 0.825746 0.088628 0.112967 0.000000 0.000000 0.000000 1.044375 0.902104 0.207607 0.359255 -0.084806 -2.109975 -8.843907 -8.323816 2.805595 0.000000 0.000000 0.000000 1.067060 0.757777 0.231787 0.670603 -0.396568 -10.511513 0.866549 0.188967 -0.207930 -1.221058 -18.955856 -56.289471 2.402795 -32.991491 1.313093 0.000000 0.000000 0.000000 1.041712 0.866758 0.198502 0.631097 5.287150 14.567622 -0.584346 2.950049 -1.646294 3.108611 8.227204 57.795927 0.133634 39.379121 0.566051 0.000000 0.000000 0.000000 
-1.165724 111.560532 -2.627533 0.000000 0.000000 0.000000 5.245429 -3.153040 0.784601 -23.665188 6.628041 12.528760 24.688815 -6.311400 0.881076 -5.372812 1.403568 -8.351027 -0.133106 0.144752 -0.291717 0.000000 0.000000 0.000000 5.742458 -2.663565 0.509819 -26.695774 -6.522076 -14.183087 25.808042 5.367553 0.583684 -3.905944 -1.678828 6.019152 -2.089479 0.418694 0.494473 0.000000 0.000000 0.000000 4.817037 -3.440251 0.397205 1.198039 1.033001 1.340915 1.489894 1.055290 0.484399 0.607140 -0.199227 0.142571 0.000000 0.000000 0.000000 1.139224 1.087564 0.114670 -0.129708 -0.023273 -1.815319 -10.958915 -7.287200 2.231518 0.000000 0.000000 0.000000 1.043309 0.946238 0.080432 0.632525 -0.811531 -9.695162 0.803113 0.430014 -0.079397 -7.647823 -17.767856 -56.259595 2.319157 -41.206463 1.286132 0.000000 0.000000 0.000000 1.168865 1.063995 0.100036 0.633307 5.461788 14.062455 -0.036158 3.294740 -1.815400 -2.066160 10.200463 54.420775 0.014461 47.094294 0.849261 0.000000 0.000000 0.000000 
-1.302769 109.284386 -3.730839 0.000000 0.000000 0.000000 7.383814 -3.035665 0.700260 -29.010894 5.637972 12.647487 29.943566 -5.799088 1.115887 -6.813389 1.810236 -8.689471 -0.216916 0.134372 -0.146853 0.000000 0.000000 0.000000 7.965835 -2.726682 0.450671 -32.017618 -6.229938 -14.630725 31.463184 5.604004 0.473927 -5.977455 -1.210567 5.838538 -2.241343 0.519816 0.483674 0.000000 0.000000 0.000000 7.206356 -3.190731 0.395558 1.287916 1.102621 1.522944 1.579650 1.233227 0.323223 0.602268 -0.227527 0.111866 0.000000 0.000000 0.000000 1.268486 1.258555 -0.013646 -0.885578 0.038956 -1.512595 -13.370497 -6.267680 1.661942 0.000000 0.000000 0.000000 1.033507 1.156855 -0.059044 0.579512 -1.446266 -8.648312 0.580741 0.428978 -0.264594 -15.632681 -16.509679 -56.441022 2.271546 -50.008186 1.177217 0.000000 0.000000 0.000000 1.270434 1.246072 -0.037194 0.616948 5.672106 13.460019 0.610110 3.501782 -1.589002 -9.640454 12.478365 50.563132 -0.097544 55.358185 1.058090 0.000000 0.000000 0.000000 
